M48
; DRILL file {KiCad 9.0.0} date 2025-02-26T09:32:52-0400
; FORMAT={-:-/ absolute / metric / decimal}
; #@! TF.CreationDate,2025-02-26T09:32:52-04:00
; #@! TF.GenerationSoftware,Kicad,Pcbnew,9.0.0
; #@! TF.FileFunction,Plated,1,2,PTH
FMAT,2
METRIC
; #@! TA.AperFunction,Plated,PTH,ViaDrill
T1C0.300
; #@! TA.AperFunction,Plated,PTH,ViaDrill
T2C0.600
; #@! TA.AperFunction,Plated,PTH,ComponentDrill
T3C0.710
; #@! TA.AperFunction,Plated,PTH,ComponentDrill
T4C0.850
; #@! TA.AperFunction,Plated,PTH,ComponentDrill
T5C1.200
; #@! TA.AperFunction,Plated,PTH,ComponentDrill
T6C1.210
; #@! TA.AperFunction,Plated,PTH,ComponentDrill
T7C1.800
%
G90
G05
T1
X139.4Y-90.6
X139.4Y-95.1
X143.6Y-92.4
X144.2Y-99.7
X144.2Y-101.2
X146.1Y-92.9
X151.0Y-94.0
X151.0Y-96.0
X151.1Y-99.4
X153.3Y-91.8
X155.3Y-106.0
X160.0Y-90.0
X162.0Y-94.7
X162.2Y-110.6
X162.5Y-88.0
X163.3Y-95.0
X164.0Y-86.0
X164.0Y-92.0
X166.0Y-80.5
X166.0Y-86.0
X166.0Y-92.0
X166.7Y-95.1
X168.0Y-86.0
X168.0Y-92.0
X168.0Y-95.2
X169.0Y-84.5
X169.0Y-87.5
X170.2Y-108.9
X172.5Y-82.0
X172.5Y-83.5
X172.5Y-99.0
X172.5Y-105.5
X174.023Y-102.967
X176.5Y-103.0
X176.79Y-108.29
X177.0Y-106.0
X177.0Y-107.4
X177.0Y-110.0
X177.0Y-112.0
X177.0Y-113.5
X181.0Y-107.65
X181.0Y-108.5
X183.5Y-99.0
X186.5Y-80.0
X186.5Y-82.0
X186.5Y-90.0
X186.5Y-91.5
T2
X126.4Y-102.3
X128.0Y-102.2
X128.5Y-95.5
X129.1Y-96.5
X129.2Y-108.3
X129.2Y-109.4
X129.2Y-110.5
X129.3Y-102.1
X130.0Y-95.5
X130.0Y-96.9
X130.5Y-108.3
X130.5Y-109.4
X130.5Y-110.5
X130.7Y-102.06
X130.9Y-96.4
X131.3Y-107.5
X131.5Y-95.5
X132.0Y-102.0
X132.0Y-108.3
X132.0Y-109.4
X132.0Y-110.5
X133.5Y-102.0
X139.0Y-98.5
X139.0Y-100.0
X139.0Y-101.5
X139.0Y-103.0
X140.5Y-98.5
X140.5Y-100.0
X140.5Y-101.5
X140.5Y-103.0
X160.5Y-106.0
X162.0Y-106.0
X162.0Y-107.5
X162.0Y-109.0
X173.0Y-87.5
X173.0Y-94.0
X174.5Y-85.0
X174.5Y-86.5
X174.5Y-88.0
X174.5Y-94.0
X176.0Y-94.0
X176.5Y-85.0
X176.5Y-87.5
X177.0Y-83.0
X177.5Y-94.0
X178.0Y-82.0
X178.0Y-85.0
X178.0Y-87.5
X179.0Y-94.0
X179.5Y-81.5
X179.5Y-85.0
X179.5Y-87.5
X180.5Y-94.0
X180.5Y-94.0
X181.0Y-81.5
X181.5Y-86.0
X181.5Y-88.0
X182.0Y-94.0
X182.5Y-84.5
X183.5Y-83.0
X183.5Y-86.0
X183.5Y-88.0
X183.5Y-94.0
X184.5Y-81.5
X185.0Y-83.0
X185.0Y-84.5
X185.0Y-87.0
X185.0Y-94.0
T3
X156.495Y-91.46
X156.495Y-94.0
X156.495Y-96.54
T4
X137.1Y-108.3
X137.1Y-113.3
T5
X123.8Y-76.8
X128.8Y-76.8
X133.8Y-76.8
X138.8Y-76.8
X143.8Y-76.8
X148.8Y-76.8
T6
X180.05Y-103.87
X180.05Y-112.13
X186.0Y-103.51
X186.0Y-112.49
T7
X123.2Y-99.8
X123.2Y-104.8
X153.4Y-113.0
X158.4Y-113.0
M30
